HIERARCHY
ROOT Hips
{
	OFFSET 0.000000 121.760803 0.000000
	CHANNELS 6 Xposition Yposition Zposition Xrotation Yrotation Zrotation 
	JOINT Spine
	{
		OFFSET 0.072000 7.257294 -0.789700
		CHANNELS 3 Xrotation Yrotation Zrotation
		JOINT Spine1
		{
			OFFSET 0.000000 12.508769 -0.658067
			CHANNELS 3 Xrotation Yrotation Zrotation
			JOINT Spine1_split
			{
				OFFSET 0.000000 12.508769 -0.658067
				CHANNELS 3 Xrotation Yrotation Zrotation
				JOINT Spine2
				{
					OFFSET 0.000000 12.508769 -0.658067
					CHANNELS 3 Xrotation Yrotation Zrotation
					JOINT Neck
					{
						OFFSET 0.000000 14.033295 7.520400
						CHANNELS 3 Xrotation Yrotation Zrotation
						JOINT Head
						{
							OFFSET 0.000000 8.198502 5.703100
							CHANNELS 3 Xrotation Yrotation Zrotation
							JOINT HeadTop_End
							{
								OFFSET 0.000000 17.760803 13.332701
								CHANNELS 3 Xrotation Yrotation Zrotation
								End Site
								{
									OFFSET 0.000000 0.000000 0.000000
								}
							}
						}
					}
					JOINT LeftShoulder
					{
						OFFSET 6.292450 5.785301 -0.669000
						CHANNELS 3 Xrotation Yrotation Zrotation
						JOINT LeftShoulder_split
						{
							OFFSET 6.292450 5.785301 -0.669000
							CHANNELS 3 Xrotation Yrotation Zrotation
							JOINT LeftArm
							{
								OFFSET 13.907140 -6.093903 1.965100
								CHANNELS 3 Xrotation Yrotation Zrotation
								JOINT LeftForeArm
								{
									OFFSET 34.140198 0.000000 0.000000
									CHANNELS 3 Xrotation Yrotation Zrotation
									JOINT LeftHand
									{
										OFFSET 40.960209 0.000000 0.000000
										CHANNELS 3 Xrotation Yrotation Zrotation
										JOINT LeftHandThumb1
										{
											OFFSET 10.006996 -7.170425 9.573125
											CHANNELS 3 Xrotation Yrotation Zrotation
											JOINT LeftHandThumb2
											{
												OFFSET 1.835007 -1.059448 1.059443
												CHANNELS 3 Xrotation Yrotation Zrotation
												JOINT LeftHandThumb3
												{
													OFFSET 2.112267 -1.219513 1.219518
													CHANNELS 3 Xrotation Yrotation Zrotation
													JOINT LeftHandThumb4
													{
														OFFSET 4.843811 -2.796570 2.796576
														CHANNELS 3 Xrotation Yrotation Zrotation
														End Site
														{
															OFFSET 0.000000 0.000000 0.000000
														}
													}
												}
											}
										}
										JOINT LeftHandIndex1
										{
											OFFSET 18.389847 -0.922348 4.596882
											CHANNELS 3 Xrotation Yrotation Zrotation
											JOINT LeftHandIndex2
											{
												OFFSET 4.711273 0.000000 0.000000
												CHANNELS 3 Xrotation Yrotation Zrotation
												JOINT LeftHandIndex3
												{
													OFFSET 2.886131 0.000000 0.000000
													CHANNELS 3 Xrotation Yrotation Zrotation
													JOINT LeftHandIndex4
													{
														OFFSET 6.145912 0.000000 0.000000
														CHANNELS 3 Xrotation Yrotation Zrotation
														End Site
														{
															OFFSET 0.000000 0.000000 0.000000
														}
													}
												}
											}
										}
										JOINT LeftHandMiddle1
										{
											OFFSET 18.013008 0.000000 0.000000
											CHANNELS 3 Xrotation Yrotation Zrotation
											JOINT LeftHandMiddle2
											{
												OFFSET 4.946693 0.000000 0.000000
												CHANNELS 3 Xrotation Yrotation Zrotation
												JOINT LeftHandMiddle3
												{
													OFFSET 3.342232 0.000000 0.000000
													CHANNELS 3 Xrotation Yrotation Zrotation
													JOINT LeftHandMiddle4
													{
														OFFSET 4.461754 0.000000 0.000000
														CHANNELS 3 Xrotation Yrotation Zrotation
														End Site
														{
															OFFSET 0.000000 0.000000 0.000000
														}
													}
												}
											}
										}
										JOINT LeftHandRing1
										{
											OFFSET 15.849892 -0.102921 -4.126150
											CHANNELS 3 Xrotation Yrotation Zrotation
											JOINT LeftHandRing2
											{
												OFFSET 3.527054 0.000000 0.000000
												CHANNELS 3 Xrotation Yrotation Zrotation
												JOINT LeftHandRing3
												{
													OFFSET 2.961098 0.000000 0.000000
													CHANNELS 3 Xrotation Yrotation Zrotation
													JOINT LeftHandRing4
													{
														OFFSET 4.927200 0.000000 0.000000
														CHANNELS 3 Xrotation Yrotation Zrotation
														End Site
														{
															OFFSET 0.000000 0.000000 0.000000
														}
													}
												}
											}
										}
										JOINT LeftHandPinky1
										{
											OFFSET 12.791824 -0.832031 -6.799156
											CHANNELS 3 Xrotation Yrotation Zrotation
											JOINT LeftHandPinky2
											{
												OFFSET 3.327133 0.000000 0.000000
												CHANNELS 3 Xrotation Yrotation Zrotation
												JOINT LeftHandPinky3
												{
													OFFSET 3.014900 0.000000 0.000000
													CHANNELS 3 Xrotation Yrotation Zrotation
													JOINT LeftHandPinky4
													{
														OFFSET 5.847786 0.000000 0.000000
														CHANNELS 3 Xrotation Yrotation Zrotation
														End Site
														{
															OFFSET 0.000000 0.000000 0.000000
														}
													}
												}
											}
										}
									}
								}
							}
						}
					}
					JOINT RightShoulder
					{
						OFFSET -6.292450 5.785301 -0.669000
						CHANNELS 3 Xrotation Yrotation Zrotation
						JOINT RightShoulder_split
						{
							OFFSET -6.292450 5.785301 -0.669000
							CHANNELS 3 Xrotation Yrotation Zrotation
							JOINT RightArm
							{
								OFFSET -13.907140 -6.093903 1.965100
								CHANNELS 3 Xrotation Yrotation Zrotation
								JOINT RightForeArm
								{
									OFFSET -34.140198 0.000000 0.000000
									CHANNELS 3 Xrotation Yrotation Zrotation
									JOINT RightHand
									{
										OFFSET -40.960209 0.000000 0.000000
										CHANNELS 3 Xrotation Yrotation Zrotation
										JOINT RightHandThumb1
										{
											OFFSET -10.007050 -7.170456 9.573117
											CHANNELS 3 Xrotation Yrotation Zrotation
											JOINT RightHandThumb2
											{
												OFFSET -1.835007 -1.059448 1.059443
												CHANNELS 3 Xrotation Yrotation Zrotation
												JOINT RightHandThumb3
												{
													OFFSET -2.112267 -1.219513 1.219518
													CHANNELS 3 Xrotation Yrotation Zrotation
													JOINT RightHandThumb4
													{
														OFFSET -4.843834 -2.796585 2.796590
														CHANNELS 3 Xrotation Yrotation Zrotation
														End Site
														{
															OFFSET 0.000000 0.000000 0.000000
														}
													}
												}
											}
										}
										JOINT RightHandIndex1
										{
											OFFSET -18.389870 -0.922424 4.596786
											CHANNELS 3 Xrotation Yrotation Zrotation
											JOINT RightHandIndex2
											{
												OFFSET -4.711273 0.000000 0.000000
												CHANNELS 3 Xrotation Yrotation Zrotation
												JOINT RightHandIndex3
												{
													OFFSET -2.886131 0.000000 0.000000
													CHANNELS 3 Xrotation Yrotation Zrotation
													JOINT RightHandIndex4
													{
														OFFSET -6.145920 0.000000 0.000000
														CHANNELS 3 Xrotation Yrotation Zrotation
														End Site
														{
															OFFSET 0.000000 0.000000 0.000000
														}
													}
												}
											}
										}
										JOINT RightHandMiddle1
										{
											OFFSET -18.013008 0.000000 0.000000
											CHANNELS 3 Xrotation Yrotation Zrotation
											JOINT RightHandMiddle2
											{
												OFFSET -4.946693 0.000000 0.000000
												CHANNELS 3 Xrotation Yrotation Zrotation
												JOINT RightHandMiddle3
												{
													OFFSET -3.342232 0.000000 0.000000
													CHANNELS 3 Xrotation Yrotation Zrotation
													JOINT RightHandMiddle4
													{
														OFFSET -4.461754 0.000000 0.000000
														CHANNELS 3 Xrotation Yrotation Zrotation
														End Site
														{
															OFFSET 0.000000 0.000000 0.000000
														}
													}
												}
											}
										}
										JOINT RightHandRing1
										{
											OFFSET -15.849876 -0.102936 -4.126237
											CHANNELS 3 Xrotation Yrotation Zrotation
											JOINT RightHandRing2
											{
												OFFSET -3.527054 0.000000 0.000000
												CHANNELS 3 Xrotation Yrotation Zrotation
												JOINT RightHandRing3
												{
													OFFSET -2.961098 0.000000 0.000000
													CHANNELS 3 Xrotation Yrotation Zrotation
													JOINT RightHandRing4
													{
														OFFSET -4.927200 0.000000 0.000000
														CHANNELS 3 Xrotation Yrotation Zrotation
														End Site
														{
															OFFSET 0.000000 0.000000 0.000000
														}
													}
												}
											}
										}
										JOINT RightHandPinky1
										{
											OFFSET -12.791786 -0.832077 -6.799222
											CHANNELS 3 Xrotation Yrotation Zrotation
											JOINT RightHandPinky2
											{
												OFFSET -3.327133 0.000000 0.000000
												CHANNELS 3 Xrotation Yrotation Zrotation
												JOINT RightHandPinky3
												{
													OFFSET -3.014900 0.000000 0.000000
													CHANNELS 3 Xrotation Yrotation Zrotation
													JOINT RightHandPinky4
													{
														OFFSET -5.847786 0.000000 0.000000
														CHANNELS 3 Xrotation Yrotation Zrotation
														End Site
														{
															OFFSET 0.000000 0.000000 0.000000
														}
													}
												}
											}
										}
									}
								}
							}
						}
					}
				}
			}
		}
	}
	JOINT LeftUpLeg
	{
		OFFSET 13.026900 -6.336304 -1.092800
		CHANNELS 3 Xrotation Yrotation Zrotation
		JOINT LeftLeg
		{
			OFFSET 0.524474 -46.096886 9.782700
			CHANNELS 3 Xrotation Yrotation Zrotation
			JOINT LeftFoot
			{
				OFFSET -0.524474 -53.427422 -12.948200
				CHANNELS 3 Xrotation Yrotation Zrotation
				JOINT LeftToeBase
				{
					OFFSET 0.192200 -14.009700 16.364100
					CHANNELS 3 Xrotation Yrotation Zrotation
					JOINT LeftToe_End
					{
						OFFSET -1.784700 -0.561700 9.474800
						CHANNELS 3 Xrotation Yrotation Zrotation
						End Site
						{
							OFFSET 0.000000 0.000000 0.000000
						}
					}
				}
			}
		}
	}
	JOINT RightUpLeg
	{
		OFFSET -12.883000 -6.336304 -1.092800
		CHANNELS 3 Xrotation Yrotation Zrotation
		JOINT RightLeg
		{
			OFFSET -0.524587 -46.096825 9.782800
			CHANNELS 3 Xrotation Yrotation Zrotation
			JOINT RightFoot
			{
				OFFSET 0.524587 -53.427383 -12.948300
				CHANNELS 3 Xrotation Yrotation Zrotation
				JOINT RightToeBase
				{
					OFFSET -0.192200 -14.009700 16.364100
					CHANNELS 3 Xrotation Yrotation Zrotation
					JOINT RightToe_End
					{
						OFFSET 1.784700 -0.561700 9.474800
						CHANNELS 3 Xrotation Yrotation Zrotation
						End Site
						{
							OFFSET 0.000000 0.000000 0.000000
						}
					}
				}
			}
		}
	}
}
MOTION
Frames: 4
Frame Time: 0.016667
10.701513 18.331459 230.766235 -98.551816 -0.371573 0.463519 3.635705 -0.488294 -0.002313 0.996826 -0.409160 0.102272 0.000000 0.000000 0.000000 1.002247 -0.404640 0.123115 11.869399 -0.692219 0.070575 20.968602 -3.405664 -0.139369 -0.000001 -0.000000 -0.000000 -0.224982 -17.471187 -6.131983 0.000000 0.000000 0.000000 63.391457 -14.457668 -43.758017 0.000006 -33.190369 -0.000002 11.926581 0.396557 4.407994 -18.975539 -6.392799 8.507239 7.278174 22.325619 2.208014 -4.727101 21.076413 18.327822 0.000001 -0.000001 -0.000001 -1.359275 -16.895777 -9.169188 0.574335 2.531662 -25.560064 0.067712 -0.889079 8.710002 0.000001 0.000000 0.000001 0.066804 2.541853 -1.771543 0.574336 2.531634 -25.560065 0.091222 -1.030922 10.113629 -0.000001 0.000002 -0.000001 -0.079281 11.343938 1.376915 0.156701 1.347273 -13.267769 0.039056 0.676067 -6.612277 -0.000001 0.000001 0.000003 -1.005502 24.263584 3.994950 0.021162 0.498119 -4.866739 0.039033 0.675836 -6.609910 -0.000001 0.000002 0.000001 -2.454918 7.297287 14.160511 0.000000 0.000000 0.000000 82.050619 23.802209 19.508779 0.000009 33.367390 -0.000007 -15.931051 26.703880 -8.895947 7.833043 7.095061 7.571912 7.285893 -22.249539 -2.728459 -3.878685 -19.856040 -17.665308 0.000002 -0.000002 -0.000001 0.350964 12.645976 48.306414 0.520622 -2.141526 27.324918 0.158028 1.204136 -14.952698 0.000001 -0.000001 0.000001 1.687085 -5.825089 49.552251 -0.000005 0.000003 0.000140 0.158025 1.204114 -14.952701 -0.000002 0.000000 -0.000001 7.431422 -12.945108 39.159131 -0.000004 -0.000006 -0.000001 0.134067 1.110544 -13.766486 -0.000001 -0.000000 0.000001 -2.798301 -28.992329 29.298397 -0.000006 0.000005 0.000007 0.117022 1.038486 -12.857204 0.000001 0.000000 0.000000 -39.903966 -33.131987 33.473664 94.842975 -7.783221 6.233529 12.283177 -3.000926 -19.825818 -8.456764 0.000013 -0.000002 0.000002 -0.000003 -0.000003 -45.792389 11.258504 -23.127652 91.096678 7.216362 -3.769609 5.202074 2.930399 18.268613 -1.799687 -0.000004 -0.000002 0.000002 0.000000 0.000001 
10.859082 18.314636 230.647522 -98.538197 -0.199735 0.504082 3.841446 -0.479199 0.001582 1.031036 -0.407031 0.091107 0.000000 0.000000 0.000000 1.036517 -0.402724 0.114033 12.329917 -0.703528 0.096694 21.499291 -3.429747 -0.164761 0.000002 0.000000 -0.000000 -0.240319 -17.364779 -6.480452 0.000000 0.000000 0.000000 63.299113 -14.213858 -43.254102 -0.000013 -33.210852 -0.000010 11.917007 0.404510 4.405481 -18.975507 -6.392767 8.507255 7.278170 22.325616 2.208010 -4.727107 21.076403 18.327817 -0.000001 -0.000002 -0.000001 -1.359263 -16.895754 -9.169186 0.574343 2.531663 -25.560062 0.067711 -0.889069 8.710007 -0.000003 0.000000 -0.000001 0.066803 2.541859 -1.771543 0.574338 2.531645 -25.560064 0.091228 -1.030931 10.113631 -0.000001 0.000001 -0.000001 -0.079278 11.343943 1.376917 0.156698 1.347278 -13.267767 0.039055 0.676058 -6.612282 0.000000 -0.000001 0.000002 -1.005502 24.263593 3.994955 0.021170 0.498134 -4.866730 0.039028 0.675829 -6.609910 -0.000000 0.000005 0.000001 -2.482194 7.018728 14.624707 0.000000 0.000000 0.000000 81.478522 23.186641 19.645588 0.000000 33.245874 0.000004 -15.507285 26.798116 -8.793886 7.793401 7.101450 7.515298 7.283423 -22.228258 -2.727034 -3.879808 -19.826760 -17.657605 0.000000 -0.000002 0.000002 0.335956 12.653742 48.176429 0.520450 -2.141205 27.320381 0.157957 1.203836 -14.948921 0.000000 -0.000000 -0.000001 1.669369 -5.809996 49.433368 -0.000002 0.000001 0.000156 0.157933 1.203795 -14.948444 0.000001 0.000000 -0.000003 7.397293 -12.931473 39.055865 0.000000 0.000004 0.000077 0.133996 1.110286 -13.763136 0.000000 0.000000 -0.000001 -2.810849 -28.967457 29.197594 -0.000002 -0.001250 0.015468 0.116965 1.038313 -12.854984 -0.000000 0.000001 0.000001 -40.318815 -33.121698 33.174881 94.876710 -7.412143 6.275212 12.186907 -2.964922 -20.098991 -8.487332 -0.000003 0.000002 -0.000002 0.000002 -0.000001 -45.163239 10.512735 -23.479096 90.145595 6.773162 -3.775044 4.046188 2.764709 19.244283 -1.833597 0.000004 -0.000003 0.000001 0.000000 0.000001 
11.013574 18.300003 230.509552 -98.527193 -0.038662 0.557171 4.136153 -0.473673 -0.009850 1.137654 -0.405698 0.070828 0.000000 0.000000 0.000000 1.143166 -0.402001 0.095219 12.729190 -0.700866 0.120165 22.078013 -3.388851 -0.214323 0.000004 -0.000000 0.000000 -0.154412 -16.831188 -6.895305 0.000000 0.000000 0.000000 63.080540 -13.982377 -42.252858 0.000006 -33.293771 0.000007 11.914771 0.448049 4.394562 -18.975527 -6.392792 8.507242 7.278170 22.325636 2.208017 -4.727092 21.076425 18.327815 -0.000000 -0.000002 -0.000001 -1.359268 -16.895771 -9.169187 0.574345 2.531662 -25.560057 0.067708 -0.889073 8.710002 -0.000003 0.000001 -0.000001 0.066801 2.541851 -1.771546 0.574344 2.531662 -25.560071 0.091229 -1.030934 10.113639 -0.000003 0.000001 0.000000 -0.079288 11.343915 1.376913 0.156705 1.347287 -13.267769 0.039055 0.676059 -6.612284 -0.000000 0.000005 0.000001 -1.005504 24.263584 3.994952 0.021170 0.498116 -4.866732 0.039027 0.675827 -6.609909 -0.000000 -0.000003 0.000001 -2.516766 6.886644 15.038907 0.000000 0.000000 0.000000 80.629154 22.829690 19.944864 0.000004 32.748326 -0.000005 -14.761319 26.600068 -8.650794 7.677677 7.119778 7.350154 7.276353 -22.167331 -2.722943 -3.882922 -19.742834 -17.635410 0.000001 -0.000000 -0.000001 0.293472 12.676140 47.797500 0.519951 -2.140229 27.307014 0.157712 1.202957 -14.937762 -0.000001 -0.000002 -0.000003 1.618787 -5.766383 49.086968 -0.000009 0.000007 0.000177 0.157685 1.202815 -14.935889 -0.000004 -0.000002 0.000000 7.298842 -12.892087 38.754876 0.000002 0.000003 0.000001 0.133808 1.109500 -13.753222 -0.000001 0.000000 0.000000 -2.846862 -28.895447 28.904176 0.000001 -0.004933 0.060539 0.116852 1.037803 -12.848421 -0.000002 0.000000 0.000000 -40.753577 -33.065670 32.875012 94.919733 -7.067644 6.300535 12.115946 -2.913066 -20.319784 -8.497730 0.000023 0.000007 0.000003 0.000002 0.000001 -44.470785 9.693906 -23.804152 89.098329 6.296242 -3.789559 2.884415 2.670367 20.219325 -1.854855 0.000006 0.000011 0.000003 -0.000000 0.000001 
11.163734 18.286659 230.353485 -98.528737 0.106828 0.618213 4.403912 -0.482938 -0.030565 1.255832 -0.410343 0.044730 0.000000 0.000000 0.000000 1.261416 -0.407324 0.070598 13.050126 -0.685838 0.139931 22.764351 -3.297651 -0.308211 -0.000001 -0.000000 0.000000 -0.073203 -16.364821 -7.317479 0.000000 0.000000 0.000000 62.845827 -13.725578 -41.337220 -0.000005 -33.322188 -0.000007 11.894091 0.459389 4.390755 -18.975534 -6.392807 8.507227 7.278185 22.325638 2.208020 -4.727099 21.076413 18.327812 0.000002 0.000001 -0.000000 -1.359268 -16.895776 -9.169186 0.574338 2.531652 -25.560064 0.067712 -0.889075 8.709996 -0.000000 0.000001 -0.000000 0.066805 2.541841 -1.771544 0.574325 2.531626 -25.560071 0.091229 -1.030918 10.113640 -0.000002 0.000001 -0.000002 -0.079283 11.343923 1.376912 0.156700 1.347268 -13.267769 0.039054 0.676074 -6.612284 0.000001 0.000004 0.000002 -1.005505 24.263576 3.994946 0.021171 0.498120 -4.866736 0.039023 0.675813 -6.609916 -0.000001 0.000003 0.000000 -2.562784 6.924870 15.366531 0.000000 0.000000 0.000000 79.650784 22.623108 20.419424 0.000003 32.127540 -0.000001 -13.938562 26.344926 -8.468987 7.490620 7.148978 7.083556 7.265201 -22.071340 -2.716512 -3.887599 -19.609968 -17.600130 0.000000 0.000004 -0.000002 0.227418 12.712865 47.186444 0.519136 -2.138656 27.285072 0.157332 1.201513 -14.919490 -0.000002 -0.000000 -0.000006 1.539448 -5.696222 48.528323 -0.000000 0.000001 0.000060 0.157252 1.201191 -14.915315 -0.000001 -0.000001 0.000000 7.142410 -12.828749 38.269492 -0.000006 0.000014 0.000024 0.133490 1.108194 -13.737003 -0.000000 -0.000000 0.000000 -2.903374 -28.780481 28.431817 0.000016 -0.010855 0.133272 0.116654 1.036928 -12.837683 -0.000001 -0.000000 0.000000 -41.195022 -32.959375 32.582154 94.974067 -6.745194 6.308064 12.067507 -2.848060 -20.472201 -8.491007 -0.000010 0.000015 -0.000001 0.000001 0.000000 -43.706992 8.782641 -24.109010 87.948289 5.913136 -3.791212 1.698556 2.513370 21.272903 -1.853761 -0.000013 -0.000001 0.000002 -0.000003 0.000001 
